<svg width="64" height="64" viewBox="0 0 64 64" fill="none" xmlns="http://www.w3.org/2000/svg">
<path d="M30.6608 4.03416C33.8854 3.93555 36.2147 3.96518 39.2896 5.3255C43.0507 7.00271 46.0004 10.0912 47.502 13.9245C49.3607 18.7484 48.7306 23.3587 46.7103 27.9562C48.6766 28.4532 50.5398 29.2933 52.214 30.4373C55.6589 32.7865 57.9982 36.4367 58.6926 40.547C61.4344 55.9809 45.2824 65.3555 32.2757 56.1767C34.9206 53.5868 35.7123 52.0819 36.9166 48.6749C39.6737 50.7155 42.3685 52.1811 45.8239 50.6316C47.7519 49.7693 49.2352 48.145 49.9191 46.1473C50.5803 44.2277 50.4467 42.1234 49.5478 40.303C46.3143 33.7903 34.3484 36.7976 28.2038 36.1772C25.2613 35.8802 18.8728 35.9079 16.3789 37.299C14.6526 38.2496 13.3918 39.8664 12.8905 41.7719C12.3613 43.771 12.6655 45.8991 13.7337 47.6699C14.7415 49.3765 16.3955 50.6041 18.3214 51.0748C20.7925 51.6625 22.6269 50.9144 24.6849 49.6704C27.7504 47.1024 26.9167 45.1169 28.1788 41.6797C28.9697 39.5255 31.9108 38.8618 33.8455 39.8761C34.9844 40.4675 35.8328 41.4979 36.1942 42.7292C38.023 48.8145 30.7747 58.0245 24.8357 59.2018C20.2854 60.1039 16.4377 60.3009 12.2859 58.0104C8.53538 55.9845 5.76523 52.5273 4.60613 48.4264C3.43068 44.1992 3.96217 38.9302 6.22412 35.1509C11.7724 25.9115 21.8003 27.8421 30.9548 27.6701C36.4887 27.8515 41.4599 23.7811 39.692 17.8542C37.6786 11.105 27.9777 10.7973 25.478 17.3468C24.9058 19.5367 25.0338 23.8961 21.8981 24.2642C13.2264 25.283 16.3182 14.0123 19.5007 10.3757C23.1492 6.20634 25.7601 4.68676 30.6608 4.03416Z" fill="#E50914"/>
</svg>
