<svg width="160" height="40" viewBox="0 0 160 40" fill="none" xmlns="http://www.w3.org/2000/svg">
<path d="M20.1003 0.0244717C22.4105 -0.0461744 24.0792 -0.0249434 26.2821 0.949615C28.9766 2.15119 31.0899 4.36385 32.1656 7.11011C33.4973 10.566 33.0459 13.8689 31.5985 17.1627C33.0071 17.5187 34.342 18.1206 35.5414 18.9402C38.0094 20.6232 39.6853 23.2383 40.1828 26.183C42.1471 37.2401 30.5755 43.9562 21.2573 37.3804C23.1521 35.5249 23.7193 34.4468 24.582 32.0059C26.5573 33.4679 28.4879 34.5178 30.9634 33.4077C32.3447 32.79 33.4074 31.6263 33.8973 30.1951C34.371 28.8199 34.2753 27.3123 33.6313 26.0081C31.3148 21.3423 22.7422 23.4968 18.34 23.0523C16.232 22.8396 11.6551 22.8594 9.86848 23.856C8.63172 24.5371 7.72846 25.6954 7.36934 27.0605C6.99017 28.4927 7.20814 30.0173 7.97343 31.2859C8.69544 32.5086 9.8804 33.3881 11.2601 33.7252C13.0305 34.1463 14.3447 33.6103 15.8191 32.7191C18.0153 30.8793 17.4179 29.4569 18.3222 26.9944C18.8887 25.4511 20.9958 24.9756 22.3819 25.7023C23.1978 26.126 23.8056 26.8642 24.0645 27.7463C25.3747 32.1059 20.1819 38.7042 15.927 39.5476C12.6672 40.1939 9.91057 40.335 6.93617 38.6941C4.24923 37.2427 2.26464 34.7659 1.43424 31.8279C0.59213 28.7994 0.972897 25.0246 2.5934 22.3171C6.56833 15.6978 13.7525 17.0809 20.3109 16.9577C24.2755 17.0877 27.8369 14.1715 26.5704 9.92544C25.128 5.09015 18.178 4.86968 16.3872 9.56189C15.9773 11.1308 16.069 14.2539 13.8226 14.5176C7.60994 15.2475 9.82501 7.17302 12.105 4.56765C14.7189 1.58067 16.5893 0.492006 20.1003 0.0244717Z" fill="#E50914"/>
<path d="M51.8234 28.8234C51.8234 28.7492 51.8159 28.6231 51.8011 28.4451C51.7863 28.267 51.7714 28.0816 51.7566 27.8887C51.7566 27.681 51.7492 27.4956 51.7344 27.3324C51.7344 27.1544 51.7344 27.0283 51.7344 26.9541C51.7195 26.5387 51.7121 25.9082 51.7121 25.0626C51.7269 24.217 51.7344 23.2897 51.7344 22.2809C51.7492 21.2573 51.764 20.2114 51.7789 19.1432C51.7937 18.0751 51.8011 17.1034 51.8011 16.2281C51.8011 15.338 51.7937 14.6036 51.7789 14.025C51.7789 13.4464 51.764 13.1497 51.7344 13.1349C51.7344 12.9865 51.7863 12.8382 51.8901 12.6898C51.994 12.5266 52.1275 12.4599 52.2907 12.4896C52.4094 12.4896 52.5429 12.5118 52.6912 12.5563C52.8544 12.586 53.0028 12.6379 53.1363 12.7121C53.2698 12.7863 53.3811 12.8827 53.4701 13.0014C53.5739 13.1052 53.6259 13.2387 53.6259 13.4019V19.8999H53.7149L56.274 16.9847C56.3778 16.8512 56.4743 16.6954 56.5633 16.5174C56.6671 16.3393 56.771 16.1687 56.8748 16.0055C56.9787 15.8424 57.0974 15.694 57.2309 15.5605C57.3644 15.427 57.535 15.338 57.7427 15.2934C58.0543 15.3676 58.3213 15.4715 58.5438 15.605C58.7664 15.7385 58.8776 15.9759 58.8776 16.3171C58.8776 16.3468 58.8628 16.3987 58.8331 16.4729C58.8183 16.5322 58.8034 16.5767 58.7886 16.6064C58.7441 16.6657 58.6477 16.7844 58.4993 16.9624C58.3658 17.1256 58.1358 17.4075 57.8095 17.8081C57.4979 18.1938 57.0677 18.713 56.5188 19.3658C55.9847 20.0037 55.2949 20.8345 54.4492 21.8581L54.6495 21.9694L58.9666 22.4145C59.1595 22.4441 59.3301 22.5554 59.4785 22.7483C59.6416 22.9263 59.7232 23.0969 59.7232 23.2601C59.7232 23.5568 59.612 23.7719 59.3894 23.9054C59.1817 24.0241 58.9518 24.0983 58.6996 24.128C58.6848 24.0686 58.6328 24.0389 58.5438 24.0389C58.4696 24.0241 58.2694 24.0018 57.943 23.9722C57.6166 23.9425 57.1196 23.898 56.452 23.8387C55.7993 23.7645 54.8869 23.6384 53.7149 23.4604L53.8039 28.7566C53.8039 29.0533 53.752 29.2758 53.6481 29.4242C53.5443 29.5874 53.3143 29.669 52.9583 29.669C52.6912 29.669 52.4539 29.58 52.2462 29.4019C52.0533 29.2388 51.9124 29.0459 51.8234 28.8234ZM65.5758 21.7914C65.4423 22.0287 65.2865 22.318 65.1085 22.6592C64.9453 22.9856 64.7673 23.3417 64.5744 23.7274C64.3816 24.0983 64.1665 24.4766 63.9291 24.8623C63.7066 25.2332 63.4692 25.5744 63.217 25.886C62.9796 26.1975 62.7274 26.4645 62.4604 26.6871C62.1933 26.8948 61.9189 27.0209 61.637 27.0654C61.5183 27.0654 61.3848 27.0579 61.2365 27.0431C61.0881 27.0134 60.9397 26.9764 60.7914 26.9318C60.643 26.8725 60.5169 26.7983 60.4131 26.7093C60.3241 26.6055 60.2796 26.4719 60.2796 26.3088C60.2944 24.7955 60.4057 23.4233 60.6134 22.1919C60.8211 20.9457 61.1474 19.8553 61.5925 18.9207C62.0376 17.9712 62.6087 17.185 63.306 16.5619C64.0033 15.9388 64.8489 15.4937 65.8429 15.2267C65.8725 15.2267 65.9244 15.2267 65.9986 15.2267C66.0876 15.2119 66.147 15.2044 66.1767 15.2044C66.6217 15.1896 66.9407 15.3973 67.1335 15.8275C67.3412 16.2429 67.4896 16.9105 67.5786 17.8303C67.6824 18.7353 67.7492 19.9073 67.7789 21.3463C67.8234 22.7705 67.905 24.484 68.0237 26.4868C68.0682 26.65 68.0904 26.7909 68.0904 26.9096C68.1053 27.0283 68.1127 27.1692 68.1127 27.3324C68.1127 27.5549 68.0459 27.7255 67.9124 27.8442C67.7789 27.9481 67.6083 28 67.4006 28C66.9703 28 66.6662 27.8813 66.4882 27.6439C66.3102 27.4066 66.1915 27.0876 66.1321 26.6871C66.1321 26.6722 66.1173 26.5535 66.0876 26.331C66.0728 26.1085 66.0431 25.8563 65.9986 25.5744C65.969 25.2777 65.9393 24.981 65.9096 24.6843C65.8799 24.3876 65.8577 24.1428 65.8429 23.9499V23.8609C65.8132 23.7126 65.7909 23.5271 65.7761 23.3046C65.7761 23.0821 65.7613 22.8669 65.7316 22.6592C65.7019 22.407 65.6797 22.1548 65.6648 21.9026L65.5758 21.7914ZM65.0862 17.3852C64.6857 17.682 64.2926 18.0825 63.9068 18.5869C63.5211 19.0913 63.2467 19.5809 63.0835 20.0556C63.0093 20.2782 62.9277 20.5823 62.8387 20.968C62.7497 21.3537 62.6681 21.7394 62.5939 22.1252C62.5346 22.4961 62.4826 22.8447 62.4381 23.1711C62.3936 23.4826 62.3714 23.6829 62.3714 23.7719C62.3862 23.7719 62.401 23.7571 62.4159 23.7274C62.4455 23.6977 62.4678 23.6755 62.4826 23.6606C63.4024 22.7705 64.0478 21.8136 64.4187 20.79C64.8044 19.7515 65.0269 18.6166 65.0862 17.3852ZM75.612 27.2434C75.4043 26.9467 75.2263 26.5387 75.0779 26.0195C74.9444 25.4854 74.8109 24.9291 74.6774 24.3505C74.5587 23.7571 74.4474 23.1859 74.3436 22.637C74.2397 22.0732 74.1284 21.6282 74.0098 21.3018C73.9059 20.9606 73.7872 20.7677 73.6537 20.7232C73.5202 20.6787 73.3644 20.879 73.1864 21.3241L71.2504 27.2879C71.1762 27.4956 71.0872 27.6439 70.9833 27.733C70.8795 27.8071 70.7089 27.8442 70.4715 27.8442C70.3528 27.8442 70.2267 27.8294 70.0932 27.7997C69.9597 27.7552 69.8336 27.6959 69.7149 27.6217C69.5962 27.5475 69.4924 27.4585 69.4034 27.3547C69.3292 27.2508 69.2847 27.1321 69.2698 26.9986C69.3143 26.8206 69.3514 26.4942 69.3811 26.0195C69.4256 25.5447 69.4553 24.9958 69.4701 24.3727C69.485 23.7496 69.4924 23.0969 69.4924 22.4145C69.5072 21.7172 69.5072 21.0719 69.4924 20.4784C69.4924 19.8702 69.485 19.3509 69.4701 18.9207C69.4553 18.4756 69.4404 18.1864 69.4256 18.0528C69.4256 17.9045 69.4256 17.7561 69.4256 17.6078C69.4404 17.4446 69.4627 17.2962 69.4924 17.1627C69.5369 17.0292 69.6036 16.9253 69.6927 16.8512C69.7965 16.7622 69.9523 16.7177 70.16 16.7177C70.4418 16.7177 70.7015 16.8363 70.9388 17.0737C71.191 17.3111 71.3171 17.5633 71.3171 17.8303C71.3171 18.216 71.2949 18.6018 71.2504 18.9875C71.2207 19.3584 71.2059 19.7367 71.2059 20.1224C71.2059 20.3597 71.2059 20.56 71.2059 20.7232C71.2059 20.8864 71.2355 21.0867 71.2949 21.3241C71.3394 21.2054 71.4136 20.9977 71.5174 20.701C71.6213 20.4043 71.7325 20.0927 71.8512 19.7663C71.9847 19.44 72.1034 19.1358 72.2073 18.854C72.3111 18.5572 72.3853 18.3495 72.4298 18.2309C72.5336 17.9342 72.6894 17.6523 72.8971 17.3852C73.1048 17.1034 73.3793 16.9476 73.7205 16.9179C73.943 16.9031 74.1433 16.9624 74.3213 17.096C74.5142 17.2295 74.6774 17.4075 74.8109 17.63C74.9444 17.8377 75.0557 18.0603 75.1447 18.2976C75.2337 18.5202 75.3004 18.713 75.345 18.8762L76.5466 24.4172L77.4813 26.9541C77.4961 26.9689 77.5035 27.0134 77.5035 27.0876C77.5035 27.147 77.5035 27.1915 77.5035 27.2211C77.5035 27.3992 77.459 27.5772 77.37 27.7552C77.2958 27.9184 77.1549 28 76.9472 28C76.695 28 76.4354 27.9332 76.1683 27.7997C75.9013 27.6514 75.7158 27.4659 75.612 27.2434ZM84.0682 24.484C84.0534 24.484 83.9495 24.6472 83.7566 24.9736C83.5786 25.3 83.3338 25.656 83.0223 26.0417C82.7107 26.4274 82.3399 26.7835 81.9096 27.1099C81.4942 27.4363 81.0492 27.5994 80.5744 27.5994C79.9217 27.5994 79.3728 27.3992 78.9277 26.9986C78.4975 26.5981 78.2824 26.0491 78.2824 25.3519C78.2527 24.9958 78.2972 24.573 78.4159 24.0834C78.5494 23.5939 78.7349 23.0895 78.9722 22.5702C79.2244 22.0362 79.5211 21.5243 79.8623 21.0348C80.2184 20.5304 80.5967 20.1001 80.9973 19.7441C81.3978 19.3732 81.8132 19.0987 82.2434 18.9207C82.6885 18.7427 83.1336 18.713 83.5786 18.8317V18.5202C83.5786 18.1344 83.5638 17.7413 83.5341 17.3407C83.5193 16.9253 83.497 16.458 83.4674 15.9388C83.4525 15.4047 83.4303 14.7965 83.4006 14.114C83.3858 13.4168 83.3783 12.586 83.3783 11.6217C83.4228 11.4585 83.497 11.3546 83.6009 11.3101C83.7196 11.2508 83.8457 11.2211 83.9792 11.2211C84.3204 11.2211 84.5874 11.3324 84.7803 11.5549C84.988 11.7774 85.1141 12.0519 85.1586 12.3783C85.1289 12.8827 85.1141 13.4019 85.1141 13.936C85.1289 14.4552 85.1586 15.0487 85.2031 15.7163C85.2476 16.3839 85.3144 17.1405 85.4034 17.9861C85.5072 18.8317 85.6333 19.8331 85.7817 20.9903C85.93 22.1326 86.1081 23.4529 86.3158 24.9513C86.5235 26.4349 86.7682 28.1558 87.0501 30.114V30.8707C87.0501 30.9597 87.013 31.0264 86.9388 31.0709C86.8795 31.1154 86.7979 31.1451 86.6941 31.1599C86.605 31.1896 86.5086 31.2045 86.4048 31.2045C86.3158 31.2193 86.249 31.2267 86.2045 31.2267C85.982 31.2267 85.7446 31.1599 85.4924 31.0264C85.2402 30.9077 85.0918 30.7371 85.0473 30.5146L84.224 24.573C84.224 24.5285 84.2017 24.5063 84.1572 24.5063C84.1275 24.4914 84.0979 24.484 84.0682 24.484ZM80.1516 24.9736C80.1516 25.0181 80.1442 25.0997 80.1294 25.2184C80.1294 25.3222 80.1294 25.4335 80.1294 25.5522C80.1442 25.6708 80.1665 25.7747 80.1961 25.8637C80.2258 25.9527 80.2852 25.9972 80.3742 25.9972C80.7451 26.0121 81.1234 25.8711 81.5091 25.5744C81.9096 25.2777 82.2731 24.9142 82.5995 24.484C82.9259 24.0389 83.1929 23.5642 83.4006 23.0598C83.6231 22.5554 83.7418 22.1029 83.7566 21.7024C83.7863 21.3018 83.6899 20.9977 83.4674 20.79C83.2597 20.5674 82.8962 20.5155 82.377 20.6342C81.739 21.198 81.205 21.8433 80.7747 22.5702C80.3593 23.2972 80.1516 24.0983 80.1516 24.9736ZM88.6968 27.1544C88.5485 25.6708 88.4224 24.4024 88.3185 23.3491C88.2147 22.2958 88.1257 21.4131 88.0515 20.701C87.9773 19.9889 87.9106 19.4251 87.8512 19.0097C87.8067 18.5795 87.7696 18.2605 87.74 18.0528C87.7103 17.8303 87.688 17.682 87.6732 17.6078C87.6584 17.5336 87.6509 17.4891 87.6509 17.4743V17.3852C87.6509 17.2221 87.7177 17.0885 87.8512 16.9847C87.9996 16.866 88.1479 16.8067 88.2963 16.8067C88.5188 16.8067 88.7562 16.8438 89.0084 16.9179C89.2754 16.9921 89.4535 17.1479 89.5425 17.3852C89.676 18.1122 89.765 18.8465 89.8095 19.5883C89.8688 20.3301 89.9134 21.0719 89.943 21.8136C89.9875 22.5406 90.0395 23.2749 90.0988 24.0167C90.173 24.7585 90.2991 25.4928 90.4771 26.2197C90.4771 26.2494 90.4845 26.3088 90.4994 26.3978C90.529 26.4868 90.5513 26.5832 90.5661 26.6871C90.5958 26.7909 90.618 26.8873 90.6329 26.9764C90.6477 27.0654 90.6551 27.1247 90.6551 27.1544V27.1989C90.6551 27.2137 90.6625 27.2286 90.6774 27.2434C90.6774 27.4214 90.5958 27.5994 90.4326 27.7775C90.2694 27.9555 90.0988 28.0297 89.9208 28C89.8763 27.9852 89.765 27.9629 89.587 27.9332C89.4238 27.8887 89.3125 27.8516 89.2532 27.822C89.2087 27.8071 89.1493 27.7775 89.0752 27.733C89.001 27.6736 88.9268 27.6143 88.8526 27.5549C88.7933 27.4956 88.7414 27.4288 88.6968 27.3547C88.6523 27.2805 88.6523 27.2137 88.6968 27.1544ZM87.4507 10.9318C87.4507 10.828 87.5323 10.739 87.6955 10.6648C87.8735 10.5758 88.007 10.5313 88.096 10.5313C88.3185 10.5313 88.5633 10.598 88.8304 10.7316C89.1122 10.8502 89.2532 11.0357 89.2532 11.2879C89.2532 11.5401 89.2161 11.7107 89.1419 11.7997C89.0826 11.8887 88.9268 11.9332 88.6746 11.9332C88.4076 11.9332 88.1331 11.8442 87.8512 11.6662C87.5842 11.4882 87.4507 11.2434 87.4507 10.9318ZM93.637 21.5021C93.4294 21.5021 93.2439 21.554 93.0807 21.6579C92.9175 21.7617 92.7247 21.8136 92.5021 21.8136C92.4725 21.8136 92.3909 21.8136 92.2574 21.8136C92.1387 21.7988 92.0645 21.7914 92.0348 21.7914C91.9755 21.7172 91.9087 21.6579 91.8345 21.6133C91.7604 21.5688 91.6862 21.5243 91.612 21.4798C91.5378 21.4205 91.4711 21.3537 91.4117 21.2795C91.3672 21.2054 91.345 21.1015 91.345 20.968C91.345 20.7455 91.434 20.5674 91.612 20.4339C91.79 20.2856 91.9977 20.1595 92.2351 20.0556C92.4725 19.9518 92.7098 19.8553 92.9472 19.7663C93.1994 19.6773 93.3997 19.5735 93.548 19.4548V18.4756C93.548 17.3778 93.4961 16.28 93.3923 15.1822C93.2884 14.0695 93.2365 12.9717 93.2365 11.8887C93.2365 11.592 93.3107 11.3991 93.459 11.3101C93.6074 11.2211 93.8077 11.1766 94.0599 11.1766C94.3566 11.1766 94.5717 11.2656 94.7052 11.4437C94.8536 11.6068 94.9574 11.8145 95.0167 12.0667C95.0761 12.3041 95.1058 12.5637 95.1058 12.8456C95.1058 13.1126 95.1132 13.3426 95.128 13.5354C95.128 13.7283 95.1428 14.0695 95.1725 14.5591C95.2022 15.0487 95.2319 15.5679 95.2615 16.1168C95.2912 16.6657 95.3209 17.185 95.3505 17.6745C95.3802 18.1641 95.4025 18.5053 95.4173 18.6982C95.4766 18.6833 95.5879 18.6463 95.7511 18.5869C95.9291 18.5127 96.1146 18.446 96.3074 18.3866C96.5003 18.3125 96.6783 18.2457 96.8415 18.1864C97.0195 18.127 97.1456 18.0825 97.2198 18.0528C97.6055 17.8896 98.0061 17.7116 98.4215 17.5188C98.8369 17.3111 99.2597 17.2072 99.6899 17.2072C99.9866 17.2072 100.209 17.3111 100.358 17.5188C100.521 17.7116 100.602 17.9416 100.602 18.2086C100.602 18.4015 100.528 18.5424 100.38 18.6314C100.231 18.7204 100.076 18.802 99.9124 18.8762L95.8624 20.3894C95.8179 20.4191 95.7734 20.4488 95.7288 20.4784C95.6843 20.4933 95.6398 20.5229 95.5953 20.5674V21.2795C95.5953 21.7988 95.6027 22.3403 95.6176 22.904C95.6472 23.4529 95.6992 23.987 95.7734 24.5063C95.8475 24.9513 95.9291 25.389 96.0181 25.8192C96.1071 26.2494 96.1517 26.6871 96.1517 27.1321C96.1517 27.2656 96.1071 27.4437 96.0181 27.6662C95.9291 27.8887 95.7882 28 95.5953 28C95.1948 28 94.8684 27.8813 94.6162 27.6439C94.364 27.4066 94.223 27.0876 94.1934 26.6871C94.1192 25.9156 94.0376 25.07 93.9486 24.1502C93.8744 23.2304 93.8002 22.3477 93.7261 21.5021H93.637ZM103.451 21.5021C103.243 21.5021 103.058 21.554 102.894 21.6579C102.731 21.7617 102.538 21.8136 102.316 21.8136C102.286 21.8136 102.205 21.8136 102.071 21.8136C101.952 21.7988 101.878 21.7914 101.848 21.7914C101.789 21.7172 101.722 21.6579 101.648 21.6133C101.574 21.5688 101.5 21.5243 101.426 21.4798C101.351 21.4205 101.285 21.3537 101.225 21.2795C101.181 21.2054 101.159 21.1015 101.159 20.968C101.159 20.7455 101.248 20.5674 101.426 20.4339C101.604 20.2856 101.811 20.1595 102.049 20.0556C102.286 19.9518 102.523 19.8553 102.761 19.7663C103.013 19.6773 103.213 19.5735 103.362 19.4548V18.4756C103.362 17.3778 103.31 16.28 103.206 15.1822C103.102 14.0695 103.05 12.9717 103.05 11.8887C103.05 11.592 103.124 11.3991 103.273 11.3101C103.421 11.2211 103.621 11.1766 103.873 11.1766C104.17 11.1766 104.385 11.2656 104.519 11.4437C104.667 11.6068 104.771 11.8145 104.83 12.0667C104.89 12.3041 104.919 12.5637 104.919 12.8456C104.919 13.1126 104.927 13.3426 104.942 13.5354C104.942 13.7283 104.956 14.0695 104.986 14.5591C105.016 15.0487 105.045 15.5679 105.075 16.1168C105.105 16.6657 105.135 17.185 105.164 17.6745C105.194 18.1641 105.216 18.5053 105.231 18.6982C105.29 18.6833 105.402 18.6463 105.565 18.5869C105.743 18.5127 105.928 18.446 106.121 18.3866C106.314 18.3125 106.492 18.2457 106.655 18.1864C106.833 18.127 106.959 18.0825 107.033 18.0528C107.419 17.8896 107.82 17.7116 108.235 17.5188C108.651 17.3111 109.073 17.2072 109.504 17.2072C109.8 17.2072 110.023 17.3111 110.171 17.5188C110.334 17.7116 110.416 17.9416 110.416 18.2086C110.416 18.4015 110.342 18.5424 110.193 18.6314C110.045 18.7204 109.889 18.802 109.726 18.8762L105.676 20.3894C105.631 20.4191 105.587 20.4488 105.542 20.4784C105.498 20.4933 105.453 20.5229 105.409 20.5674V21.2795C105.409 21.7988 105.416 22.3403 105.431 22.904C105.461 23.4529 105.513 23.987 105.587 24.5063C105.661 24.9513 105.743 25.389 105.832 25.8192C105.921 26.2494 105.965 26.6871 105.965 27.1321C105.965 27.2656 105.921 27.4437 105.832 27.6662C105.743 27.8887 105.602 28 105.409 28C105.008 28 104.682 27.8813 104.43 27.6439C104.178 27.4066 104.037 27.0876 104.007 26.6871C103.933 25.9156 103.851 25.07 103.762 24.1502C103.688 23.2304 103.614 22.3477 103.54 21.5021H103.451ZM115.534 25.886C115.43 26.1085 115.326 26.3533 115.223 26.6203C115.119 26.8725 115 27.1025 114.867 27.3102C114.733 27.5178 114.57 27.6959 114.377 27.8442C114.184 27.9777 113.939 28.0445 113.643 28.0445C113.123 28.0445 112.693 27.9184 112.352 27.6662C112.011 27.3992 111.729 27.0728 111.506 26.6871C111.299 26.2865 111.15 25.8563 111.061 25.3964C110.972 24.9365 110.928 24.5063 110.928 24.1057L111.106 18.7204C111.091 18.6166 111.113 18.5127 111.173 18.4089C111.247 18.2902 111.336 18.1864 111.44 18.0973C111.558 17.9935 111.684 17.9119 111.818 17.8526C111.966 17.7932 112.1 17.7635 112.218 17.7635C112.56 17.7635 112.849 17.8748 113.086 18.0973C113.324 18.305 113.442 18.5795 113.442 18.9207V19.1432C113.279 19.4103 113.138 19.7589 113.02 20.1891C112.901 20.6194 112.804 21.0867 112.73 21.5911C112.671 22.0807 112.634 22.5851 112.619 23.1043C112.604 23.6235 112.619 24.0983 112.663 24.5285C112.723 24.9587 112.812 25.3296 112.931 25.6412C113.049 25.9379 113.205 26.1159 113.398 26.1752C113.472 26.1752 113.583 26.1382 113.732 26.064C113.895 25.9898 114.065 25.8489 114.243 25.6412C114.421 25.4335 114.607 25.1442 114.8 24.7733C114.993 24.3876 115.163 23.8832 115.312 23.2601C115.46 22.637 115.571 21.8804 115.645 20.9903C115.72 20.1001 115.742 19.032 115.712 17.7858C115.772 17.6226 115.853 17.5336 115.957 17.5188C116.076 17.5039 116.194 17.4965 116.313 17.4965C116.447 17.4965 116.558 17.5039 116.647 17.5188C116.736 17.5188 116.832 17.5707 116.936 17.6745C117.01 17.7487 117.092 17.86 117.181 18.0083C117.27 18.1567 117.314 18.2383 117.314 18.2531L117.693 28.1113C117.693 28.3338 117.633 28.5192 117.515 28.6676C117.396 28.8159 117.225 28.8901 117.003 28.8901C116.929 28.8901 116.84 28.8827 116.736 28.8679C116.632 28.853 116.528 28.8234 116.424 28.7789C116.32 28.7344 116.224 28.675 116.135 28.6008C116.061 28.5415 116.016 28.4673 116.001 28.3783L115.623 26.153L115.534 25.886ZM125.259 27.2434C125.051 26.9467 124.873 26.5387 124.725 26.0195C124.591 25.4854 124.458 24.9291 124.324 24.3505C124.205 23.7571 124.094 23.1859 123.99 22.637C123.887 22.0732 123.775 21.6282 123.657 21.3018C123.553 20.9606 123.434 20.7677 123.301 20.7232C123.167 20.6787 123.011 20.879 122.833 21.3241L120.897 27.2879C120.823 27.4956 120.734 27.6439 120.63 27.733C120.526 27.8071 120.356 27.8442 120.118 27.8442C120 27.8442 119.874 27.8294 119.74 27.7997C119.606 27.7552 119.48 27.6959 119.362 27.6217C119.243 27.5475 119.139 27.4585 119.05 27.3547C118.976 27.2508 118.931 27.1321 118.917 26.9986C118.961 26.8206 118.998 26.4942 119.028 26.0195C119.072 25.5447 119.102 24.9958 119.117 24.3727C119.132 23.7496 119.139 23.0969 119.139 22.4145C119.154 21.7172 119.154 21.0719 119.139 20.4784C119.139 19.8702 119.132 19.3509 119.117 18.9207C119.102 18.4756 119.087 18.1864 119.072 18.0528C119.072 17.9045 119.072 17.7561 119.072 17.6078C119.087 17.4446 119.109 17.2962 119.139 17.1627C119.184 17.0292 119.25 16.9253 119.339 16.8512C119.443 16.7622 119.599 16.7177 119.807 16.7177C120.089 16.7177 120.348 16.8363 120.586 17.0737C120.838 17.3111 120.964 17.5633 120.964 17.8303C120.964 18.216 120.942 18.6018 120.897 18.9875C120.867 19.3584 120.853 19.7367 120.853 20.1224C120.853 20.3597 120.853 20.56 120.853 20.7232C120.853 20.8864 120.882 21.0867 120.942 21.3241C120.986 21.2054 121.06 20.9977 121.164 20.701C121.268 20.4043 121.379 20.0927 121.498 19.7663C121.632 19.44 121.75 19.1358 121.854 18.854C121.958 18.5572 122.032 18.3495 122.077 18.2309C122.18 17.9342 122.336 17.6523 122.544 17.3852C122.752 17.1034 123.026 16.9476 123.367 16.9179C123.59 16.9031 123.79 16.9624 123.968 17.096C124.161 17.2295 124.324 17.4075 124.458 17.63C124.591 17.8377 124.702 18.0603 124.791 18.2976C124.88 18.5202 124.947 18.713 124.992 18.8762L126.193 24.4172L127.128 26.9541C127.143 26.9689 127.15 27.0134 127.15 27.0876C127.15 27.147 127.15 27.1915 127.15 27.2211C127.15 27.3992 127.106 27.5772 127.017 27.7552C126.943 27.9184 126.802 28 126.594 28C126.342 28 126.082 27.9332 125.815 27.7997C125.548 27.6514 125.363 27.4659 125.259 27.2434ZM133.715 24.484C133.7 24.484 133.596 24.6472 133.403 24.9736C133.225 25.3 132.981 25.656 132.669 26.0417C132.358 26.4274 131.987 26.7835 131.556 27.1099C131.141 27.4363 130.696 27.5994 130.221 27.5994C129.568 27.5994 129.02 27.3992 128.575 26.9986C128.144 26.5981 127.929 26.0491 127.929 25.3519C127.899 24.9958 127.944 24.573 128.063 24.0834C128.196 23.5939 128.382 23.0895 128.619 22.5702C128.871 22.0362 129.168 21.5243 129.509 21.0348C129.865 20.5304 130.243 20.1001 130.644 19.7441C131.045 19.3732 131.46 19.0987 131.89 18.9207C132.335 18.7427 132.78 18.713 133.225 18.8317V18.5202C133.225 18.1344 133.211 17.7413 133.181 17.3407C133.166 16.9253 133.144 16.458 133.114 15.9388C133.099 15.4047 133.077 14.7965 133.047 14.114C133.033 13.4168 133.025 12.586 133.025 11.6217C133.07 11.4585 133.144 11.3546 133.248 11.3101C133.366 11.2508 133.492 11.2211 133.626 11.2211C133.967 11.2211 134.234 11.3324 134.427 11.5549C134.635 11.7774 134.761 12.0519 134.805 12.3783C134.776 12.8827 134.761 13.4019 134.761 13.936C134.776 14.4552 134.805 15.0487 134.85 15.7163C134.894 16.3839 134.961 17.1405 135.05 17.9861C135.154 18.8317 135.28 19.8331 135.428 20.9903C135.577 22.1326 135.755 23.4529 135.963 24.9513C136.17 26.4349 136.415 28.1558 136.697 30.114V30.8707C136.697 30.9597 136.66 31.0264 136.586 31.0709C136.526 31.1154 136.445 31.1451 136.341 31.1599C136.252 31.1896 136.155 31.2045 136.052 31.2045C135.963 31.2193 135.896 31.2267 135.851 31.2267C135.629 31.2267 135.391 31.1599 135.139 31.0264C134.887 30.9077 134.739 30.7371 134.694 30.5146L133.871 24.573C133.871 24.5285 133.848 24.5063 133.804 24.5063C133.774 24.4914 133.745 24.484 133.715 24.484ZM129.798 24.9736C129.798 25.0181 129.791 25.0997 129.776 25.2184C129.776 25.3222 129.776 25.4335 129.776 25.5522C129.791 25.6708 129.813 25.7747 129.843 25.8637C129.873 25.9527 129.932 25.9972 130.021 25.9972C130.392 26.0121 130.77 25.8711 131.156 25.5744C131.556 25.2777 131.92 24.9142 132.246 24.484C132.573 24.0389 132.84 23.5642 133.047 23.0598C133.27 22.5554 133.389 22.1029 133.403 21.7024C133.433 21.3018 133.337 20.9977 133.114 20.79C132.906 20.5674 132.543 20.5155 132.024 20.6342C131.386 21.198 130.852 21.8433 130.422 22.5702C130.006 23.2972 129.798 24.0983 129.798 24.9736ZM137.365 24.5953L138.188 18.8762C138.218 18.6833 138.299 18.5424 138.433 18.4534C138.581 18.3644 138.744 18.3199 138.922 18.3199C139.249 18.3199 139.508 18.4163 139.701 18.6092C139.894 18.7872 140.057 19.0097 140.191 19.2768H140.213C140.391 19.2768 140.547 19.2471 140.68 19.1878C140.829 19.1136 141.007 19.0765 141.214 19.0765C141.689 19.0765 142.09 19.2248 142.416 19.5215C142.757 19.8183 143.032 20.1817 143.239 20.612C143.447 21.0273 143.595 21.4798 143.684 21.9694C143.788 22.459 143.84 22.8892 143.84 23.2601C143.84 23.7051 143.721 24.2021 143.484 24.751C143.262 25.3 142.957 25.8192 142.572 26.3088C142.201 26.7983 141.778 27.2063 141.303 27.5327C140.829 27.8591 140.346 28.0223 139.857 28.0223C139.412 28.0223 139.026 27.9184 138.7 27.7107C138.388 27.503 138.129 27.2434 137.921 26.9318C137.728 26.6055 137.587 26.242 137.498 25.8414C137.409 25.4409 137.365 25.0477 137.365 24.662V24.5953ZM139.234 24.7288C139.263 24.8771 139.293 25.0477 139.323 25.2406C139.352 25.4335 139.397 25.6115 139.456 25.7747C139.516 25.923 139.597 26.0417 139.701 26.1307C139.82 26.2049 139.983 26.2049 140.191 26.1307C140.384 25.9527 140.591 25.7524 140.814 25.5299C141.036 25.3074 141.244 25.07 141.437 24.8178C141.645 24.5656 141.815 24.2986 141.949 24.0167C142.082 23.7348 142.149 23.4381 142.149 23.1266C142.208 22.6222 142.171 22.1623 142.038 21.7469C141.904 21.3166 141.711 21.0125 141.459 20.8345C141.222 20.6416 140.947 20.6194 140.636 20.7677C140.324 20.9012 140.013 21.2795 139.701 21.9026C139.523 22.2884 139.397 22.7408 139.323 23.2601C139.263 23.7645 139.234 24.2318 139.234 24.662V24.7288ZM148.113 27.0209C148.113 26.8132 148.202 26.6129 148.38 26.42C148.558 26.2272 148.766 26.1307 149.003 26.1307C149.285 26.1307 149.559 26.2123 149.826 26.3755C150.093 26.5239 150.227 26.7687 150.227 27.1099C150.227 27.4214 150.13 27.6365 149.938 27.7552C149.745 27.8591 149.522 27.911 149.27 27.911C148.988 27.911 148.721 27.8442 148.469 27.7107C148.231 27.5624 148.113 27.3324 148.113 27.0209ZM146.622 21.7024C146.711 21.3018 146.852 20.9309 147.045 20.5897C147.237 20.2336 147.445 19.8999 147.668 19.5883C147.905 19.2619 148.15 18.943 148.402 18.6314C148.654 18.3199 148.884 17.9935 149.092 17.6523C149.122 17.6078 149.174 17.5188 149.248 17.3852C149.337 17.2369 149.426 17.0811 149.515 16.9179C149.604 16.7399 149.685 16.5693 149.76 16.4061C149.849 16.2429 149.908 16.1242 149.938 16.0501C150.012 15.8869 150.041 15.783 150.027 15.7385C150.012 15.694 150.004 15.5976 150.004 15.4492C149.411 15.4492 148.869 15.5679 148.38 15.8053C147.905 16.0278 147.423 16.3023 146.933 16.6286C146.711 16.777 146.511 16.9402 146.333 17.1182C146.154 17.2962 145.925 17.3852 145.643 17.3852C145.42 17.3852 145.183 17.3036 144.931 17.1405C144.678 16.9624 144.552 16.7399 144.552 16.4729C144.552 16.3839 144.56 16.3319 144.575 16.3171C144.604 16.2874 144.664 16.2429 144.753 16.1836C145.183 15.8424 145.606 15.5308 146.021 15.2489C146.436 14.9522 146.859 14.7 147.289 14.4923C147.734 14.2698 148.194 14.0992 148.669 13.9805C149.159 13.847 149.685 13.7802 150.249 13.7802C150.724 13.7802 151.132 13.8915 151.473 14.114C151.829 14.3366 152.007 14.7074 152.007 15.2267C152.007 15.5679 151.948 15.9165 151.829 16.2726C151.71 16.6286 151.562 16.9773 151.384 17.3185C151.206 17.6597 151.006 17.9861 150.783 18.2976C150.575 18.6092 150.383 18.8985 150.205 19.1655C150.086 19.3435 149.93 19.5438 149.737 19.7663C149.544 19.9889 149.359 20.2262 149.181 20.4784C149.003 20.7158 148.847 20.9606 148.714 21.2128C148.58 21.4502 148.513 21.6653 148.513 21.8581C148.513 21.9768 148.565 22.0658 148.669 22.1252C148.773 22.1845 148.825 22.2735 148.825 22.3922C148.825 22.6592 148.743 22.8521 148.58 22.9708C148.417 23.0746 148.217 23.1266 147.979 23.1266C147.594 23.1266 147.267 22.993 147 22.726C146.748 22.4441 146.622 22.1177 146.622 21.7469V21.7024Z" fill="white"/>
</svg>
